<svg class="group-hover:hidden" width="101" height="98" viewBox="0 0 101 98" fill="none" xmlns="http://www.w3.org/2000/svg">
<path d="M83.6709 46.5172C78.5154 47.0069 74.5509 46.0917 71.8413 43.8035C67.0535 45.0961 62.4815 45.8508 57.6057 46.4288C53.4494 46.9186 48.4218 47.1594 42.515 47.1514C35.7049 47.1354 28.5592 46.5172 21.0858 45.2647C16.6017 44.5181 12.3095 43.2576 8.20106 41.4913C7.25789 41.0899 5.01985 39.7973 5.45946 38.5448C5.73922 37.7661 6.29074 37.1398 7.13 36.6822C9.05631 35.6305 11.3343 34.7473 13.972 34.0328C18.0005 32.9409 22.0449 32.122 26.0894 31.56C26.7848 31.4637 27.4002 31.3995 27.9278 31.3914C28.767 31.3593 29.5184 31.0462 30.3576 31.0301C33.315 30.9739 35.8248 30.5565 38.8302 30.5003C43.1944 30.4119 47.5186 30.5003 51.8108 30.7973C50.6199 29.007 49.6207 27.1443 48.7415 25.2576C46.9271 25.1693 45.9919 25.1131 45.936 25.1051C43.9857 25.0328 42.0514 25.0328 40.1331 25.1051C36.4323 25.2576 33.0752 25.4022 29.934 25.6912C24.6826 26.1809 19.9028 26.9757 15.5946 28.0676C11.2224 29.1836 7.28986 30.428 3.85287 32.5556C1.49494 34.0087 0.240041 36.1042 0.0721886 38.8258C-0.119643 42.1898 0.0721892 45.9471 0.631699 50.0979C2.54202 63.9551 10.1913 76.3833 22.5085 83.2798C22.7643 83.4323 22.9082 83.7133 22.8762 84.0103C22.6764 85.7847 22.6444 87.6232 22.7883 89.5179C23.0121 92.5286 24.9783 93.757 27.5281 94.608C30.5655 95.6196 33.0673 96.2378 35.0335 96.4385C36.0806 96.5429 36.9439 96.6794 37.6313 96.848C37.7911 96.8881 37.951 96.9042 38.1188 96.9122C43.57 97.0567 46.991 97.0647 48.3499 96.9122C51.4352 96.6071 54.2966 96.1254 56.9103 95.4751C59.6599 94.7926 64.176 93.4358 64.6875 90.1361C65.0392 87.8962 65.0712 85.7445 64.7834 83.7133C64.7515 83.5367 64.8394 83.3681 64.9993 83.2798C66.7737 82.3083 68.5002 81.1361 70.2027 79.7472C78.2516 73.1478 83.479 64.774 85.9089 54.6179C86.6043 51.7116 87.0599 48.8936 87.2677 46.1639L83.6709 46.5011V46.5172ZM58.6208 89.3333C55.9672 90.1522 54.2327 90.6499 53.4094 90.7864C50.3641 91.3243 47.2468 91.6696 44.0656 91.8141C43.9777 91.8141 43.8978 91.8141 43.8178 91.8141C43.7379 91.8141 43.65 91.8141 43.5621 91.8141C40.3808 91.7017 37.2636 91.3966 34.2103 90.8828C33.371 90.7382 31.6285 90.2646 28.9828 89.4617C28.2954 89.269 27.8239 88.6268 27.8239 87.9042V86.7641C27.8239 86.1781 28.3834 85.7525 28.9429 85.9131C29.7262 86.1299 30.6374 86.3948 31.6605 86.6999C33.9705 87.3823 36.9838 87.8962 40.7086 88.2414C41.7397 88.3377 42.7707 88.3859 43.7939 88.3779C44.8249 88.3779 45.8481 88.3217 46.8791 88.2093C50.6039 87.8319 53.6172 87.294 55.9112 86.5875C56.9343 86.2664 57.8375 85.9934 58.6208 85.7686C59.1804 85.6 59.7399 86.0175 59.7479 86.6116V87.7516C59.7718 88.4742 59.3002 89.1004 58.6208 89.3172V89.3333Z" fill="#473533" class="group-hover:fill-[#FFF2DF]" />
<path d="M87.5886 13.9374C86.038 16.1854 84.2635 18.2809 82.3053 20.1756C81.8577 20.6011 81.2981 21.2113 80.6667 21.8134C80.6587 21.8214 80.6507 21.8295 80.6427 21.8295C79.3958 23.0418 77.8931 24.238 76.5023 24.1336C76.4304 24.1336 76.3585 24.1256 76.2865 24.1096C73.3691 23.6038 74.4881 18.4816 74.9997 16.5627C76.2146 11.9142 78.077 7.43432 80.4988 3.2916C81.2022 2.10338 82.0175 0.86699 83.2884 0.313022C84.2476 -0.0964324 85.3346 -0.0562902 86.3577 0.16048C86.9891 0.296965 87.6126 0.513734 88.1961 0.81079C89.2991 1.36476 90.2343 2.20775 90.7459 3.30766C92.4404 6.96064 89.5629 11.0552 87.5886 13.9374Z" fill="#EE514A" class="group-hover:fill-[#FFF2DF]" />
<path d="M100.976 30.0105C100.873 31.287 100.505 32.5796 99.8334 33.6554C99.5377 34.1211 99.186 34.5546 98.7704 34.9319C97.0119 36.5055 94.4302 36.8106 92.1282 37.0274C90.4337 37.188 88.7472 37.3485 87.0527 37.5091C85.6619 37.6376 84.2631 37.766 82.8643 37.9025C82.4886 37.9346 81.9771 37.9748 81.4096 37.9828C79.2035 38.031 76.1822 37.6777 76.9975 35.3093C77.0534 35.1327 77.1333 34.9319 77.2452 34.7232C77.5889 34.0809 78.1485 33.5751 78.7239 33.1255C79.0517 32.8606 79.3874 32.6117 79.7311 32.3628H79.7391C80.2426 31.9935 80.7542 31.6563 81.2817 31.3352C82.6165 30.5002 84.0233 29.7696 85.462 29.1113C85.462 29.1113 85.462 29.1032 85.47 29.1032C86.9807 28.4128 88.5313 27.7946 90.066 27.2005C92.2001 26.3735 94.3902 25.5867 96.6762 25.4503C97.7393 25.378 98.8743 25.4904 99.7135 26.1407C100.825 27.0078 101.088 28.5974 100.976 30.0105Z" fill="#EE514A" class="group-hover:fill-[#FFF2DF]" />
<path d="M65.0322 26.8231C64.8084 28.7419 64.049 30.4118 61.851 29.2316C61.2115 28.8864 60.716 28.3244 60.2604 27.7544C59.8207 27.2004 59.4051 26.6224 59.0214 26.0282C57.0392 23.0577 55.6404 19.7098 54.3615 16.3619C53.5462 14.2103 52.7629 12.0104 52.6191 9.71429C52.5631 8.65453 52.659 7.50645 53.3064 6.66345C54.1697 5.54749 55.7603 5.28255 57.1591 5.39495C58.4379 5.49932 59.7168 5.86863 60.7879 6.54302C61.2515 6.84008 61.6831 7.19334 62.0508 7.61082C63.6174 9.37709 63.9291 11.9783 64.1449 14.2905C64.4327 17.3896 64.7284 20.4886 65.0162 23.5876C65.0881 24.3423 65.168 25.6348 65.0322 26.8231Z"  fill="#EE514A" class="group-hover:fill-[#FFF2DF]" />
</svg>
