<svg class="group-hover:hidden" width="106" height="87" viewBox="0 0 106 87" fill="none" xmlns="http://www.w3.org/2000/svg">
    <path class="group-hover:fill-[#FFF2DF]" fill="#473533" d="M76.1706 47.2591L74.4929 45.0397L71.7314 45.4243C71.2899 45.4804 70.8404 45.5124 70.3989 45.5124C67.5812 45.5124 64.9 44.2945 63.0377 42.1632C61.4563 40.3524 60.6053 38.0289 60.6455 35.6412C59.7304 35.7694 58.7992 35.8815 57.86 35.9937C53.6776 36.4825 48.6364 36.7228 42.7041 36.7148C35.8567 36.6988 28.6881 36.0819 21.1825 34.8319C16.671 34.0868 12.3683 32.8288 8.24218 31.0661C7.29494 30.6655 5.04725 29.3755 5.48876 28.1256C5.76972 27.3484 6.33165 26.7234 7.17453 26.2667C9.10915 25.2171 11.397 24.3357 14.038 23.6226C18.0839 22.5329 22.1458 21.7157 26.2077 21.1548C26.9141 21.0587 27.5322 20.9946 28.054 20.9866C28.9049 20.9545 29.6514 20.642 30.4943 20.626C33.4725 20.5699 35.9931 20.1533 39.0034 20.0972C44.4461 19.985 49.8325 20.1533 55.1547 20.626C55.4678 18.679 56.3668 16.8922 57.7395 15.4821C55.821 15.2898 53.8864 15.1375 51.9517 15.0334C48.1547 14.8331 46.2121 14.7289 46.1399 14.7209C44.1731 14.6488 42.2385 14.6488 40.3039 14.7209C36.5952 14.8731 33.2237 15.0173 30.0608 15.3058C24.7868 15.7945 19.9864 16.5878 15.6596 17.6775C11.2685 18.7912 7.31903 20.0331 3.86722 22.1564C1.50714 23.6066 0.238801 25.6978 0.0782519 28.414C-0.122435 31.7712 0.0621976 35.521 0.640175 39.6634C2.55071 53.4927 10.233 65.8959 22.6113 72.7785C22.8682 72.9307 23.0127 73.2111 22.9806 73.5076C22.7799 75.2783 22.7398 77.1132 22.8843 79.0041C23.1091 82.0087 25.0918 83.2346 27.6446 84.0839C30.695 85.0935 33.2156 85.7104 35.1824 85.9107C36.234 86.0149 37.1009 86.1511 37.7833 86.3194C37.9518 86.3594 38.1124 86.3755 38.281 86.3835C43.7557 86.5277 47.1834 86.5357 48.5561 86.3835C51.6547 86.079 54.5205 85.5983 57.1535 84.9493C59.907 84.2682 64.4505 82.9141 64.9643 79.621C65.3175 77.3856 65.3496 75.2383 65.0526 73.2111C65.0204 73.0349 65.1087 72.8666 65.2693 72.7785C67.0514 71.809 68.7934 70.6392 70.5032 69.253C76.6603 64.2373 81.1637 58.188 84.0455 51.113H83.9653C80.8827 51.113 78.041 49.7029 76.1786 47.2591H76.1706ZM58.8714 78.8118C56.2063 79.6291 54.4563 80.1258 53.6295 80.262C50.571 80.7989 47.4403 81.1434 44.2534 81.2876C44.1651 81.2876 44.0848 81.2876 43.9965 81.2876C43.9082 81.2876 43.8279 81.2876 43.7396 81.2876C40.5447 81.1754 37.414 80.871 34.3555 80.3582C33.5126 80.2139 31.7707 79.7412 29.0975 78.94C28.4152 78.7477 27.9416 78.1067 27.9416 77.3856V76.2478C27.9416 75.6629 28.4955 75.2383 29.0574 75.3985C29.8521 75.6149 30.7592 75.8793 31.7948 76.1837C34.1067 76.8648 37.1411 77.3776 40.8819 77.7221C41.9094 77.8183 42.9449 77.8663 43.9805 77.8583C45.016 77.8503 46.0435 77.8022 47.071 77.6901C50.8118 77.3135 53.8382 76.7766 56.1421 76.0716C57.1776 75.7511 58.0847 75.4786 58.8714 75.2543C59.4333 75.086 59.9953 75.5027 60.0033 76.0956V77.2334C60.0193 77.9545 59.5537 78.5794 58.8714 78.7958V78.8118Z" />
    <path class="fill-[#EE514A] group-hover:fill-[#FFF2DF]" fill="#EE514A" d="M104.868 19.937L100.766 16.8362C99.9395 16.2193 99.5141 15.1937 99.6586 14.1681L100.357 9.08827C100.622 7.20536 99.0083 5.59487 97.1219 5.85127L92.0244 6.55636C90.9969 6.70058 89.9774 6.26791 89.3433 5.45065L86.2366 1.35633C85.0887 -0.158003 82.8169 -0.158003 81.669 1.35633L78.5624 5.45065C77.9362 6.26791 76.9168 6.70058 75.8892 6.55636L70.7918 5.85127C68.9053 5.59487 67.2918 7.20536 67.5567 9.08827L68.2551 14.1681C68.3916 15.1376 68.0143 16.1231 67.2597 16.7401C67.2276 16.7801 67.1794 16.8122 67.1393 16.8362L63.0533 19.937C62.5396 20.3216 62.2024 20.8344 62.0419 21.3872C61.7127 22.4849 62.0499 23.7429 63.0533 24.5121L67.1393 27.6129C67.9742 28.2298 68.3996 29.2554 68.2551 30.281L67.6852 34.4314L67.5567 35.3608C67.2918 37.2437 68.9053 38.8542 70.7918 38.5978L75.8892 37.8927C76.9168 37.7485 77.9362 38.1812 78.5624 38.9984L81.669 43.0927C82.8169 44.6071 85.0887 44.6071 86.2366 43.0927L86.63 42.5799L89.3433 38.9984C89.9774 38.1812 90.9969 37.7485 92.0244 37.8927L97.1219 38.5978C99.0083 38.8542 100.622 37.2437 100.357 35.3608L99.6586 30.281C99.5141 29.2554 99.9395 28.2298 100.766 27.6129L104.868 24.5121C106.378 23.3663 106.378 21.0828 104.868 19.937ZM92.5221 18.9194L82.7688 28.4942C81.958 29.3035 80.6415 29.2794 79.8468 28.4542L75.3915 23.839C74.6048 23.0138 74.6289 21.7157 75.4477 20.9305C76.2665 20.1453 77.567 20.1694 78.3617 20.9866L79.927 22.6131C80.7218 23.4384 82.0383 23.4544 82.849 22.6532L89.6403 15.9949C90.443 15.1937 91.7515 15.2097 92.5462 16.019C92.9396 16.4196 93.1403 16.9404 93.1403 17.4532C93.1403 17.966 92.9315 18.5188 92.5221 18.9194Z" />
</svg>
