<svg class="group-hover:hidden" width="111" height="99" viewBox="0 0 111 99" fill="none" xmlns="http://www.w3.org/2000/svg">
<path d="M70.8442 25.1553C66.736 24.4226 62.6113 23.8752 58.4615 23.5131C58.5198 23.7152 58.5615 23.9258 58.5948 24.1363C58.8615 25.77 58.6198 27.4627 57.8865 29.1217C60.9197 29.3996 63.9279 29.7701 66.9194 30.2333C69.1359 30.5785 71.3441 31.0164 73.5273 31.5638C73.8273 31.2438 74.1606 30.9154 74.5023 30.6122C75.2939 29.5932 76.2689 28.4395 77.3938 27.1764C77.5105 27.0416 77.6355 26.8985 77.7521 26.7637C75.0439 26.0226 72.7357 25.4921 70.8525 25.1553H70.8442ZM67.5193 84.3481C67.5193 84.3481 67.5193 84.2975 67.5193 84.2807C67.261 84.1881 66.9694 84.0702 66.6277 83.9438C65.7778 83.6238 64.9695 83.1607 64.2362 82.588L49.7953 71.2867C49.1953 70.8067 48.6703 70.2678 48.2287 69.6867C45.4122 65.9729 44.7622 61.3076 46.4621 56.8949C47.6204 53.8969 50.2202 51.5474 51.2952 50.68C53.4867 48.9031 55.62 47.1599 57.6865 45.4588C53.8451 45.8041 49.387 45.9894 44.3206 45.9725C37.2126 45.9557 29.7713 45.3073 21.9801 43.9935C17.297 43.2104 12.8306 41.8967 8.54745 40.0356C7.56417 39.6145 5.23096 38.2587 5.68927 36.9534C5.98092 36.1281 6.56422 35.4713 7.43917 34.9913C9.4474 33.8881 11.8223 32.9617 14.5638 32.2123C15.9471 31.8333 17.347 31.488 18.7386 31.1764C18.7219 31.1764 18.7052 31.1512 18.6886 31.1343C17.6886 30.1912 16.9637 28.9953 16.597 27.6732C16.4304 27.1006 16.3137 26.5279 16.2554 25.9637C11.6973 27.1343 7.5975 28.4395 4.01436 30.6712C1.55615 32.1954 0.247887 34.3934 0.0812292 37.2481C-0.127093 40.7682 0.0645641 44.7094 0.664532 49.0631C2.64776 63.6066 10.6223 76.6342 23.4717 83.8765C23.7383 84.0281 23.8883 84.3228 23.855 84.6344C23.6466 86.4955 23.605 88.4239 23.755 90.4113C23.9883 93.5693 26.0382 94.8578 28.6964 95.7588C31.8629 96.8199 34.4711 97.4599 36.521 97.6704C37.6042 97.7799 38.5125 97.9315 39.2208 98.0999C39.3875 98.1505 39.5541 98.1589 39.7291 98.1673C45.4205 98.3189 48.9786 98.3273 50.3952 98.1841C53.6201 97.8557 56.5949 97.3504 59.3281 96.6767C62.1863 95.9609 66.9027 94.5462 67.436 91.0766C67.8027 88.7271 67.8277 86.4786 67.5277 84.3481H67.5193ZM61.103 90.2177C58.3365 91.0851 56.5199 91.5987 55.6616 91.7503C52.4868 92.3145 49.237 92.6682 45.9288 92.8198C45.8371 92.8198 45.7538 92.8198 45.6622 92.8198C45.5705 92.8198 45.4788 92.8198 45.3955 92.8198C42.079 92.7103 38.8292 92.3819 35.6544 91.843C34.7794 91.6914 32.9712 91.2029 30.1963 90.3608C29.488 90.1503 28.9964 89.485 28.9964 88.7271V87.5229C28.9964 86.9081 29.5713 86.4702 30.1546 86.6302C30.9796 86.8576 31.9212 87.1355 32.9962 87.4555C35.396 88.1713 38.5459 88.7103 42.429 89.0724C43.4956 89.1734 44.5705 89.224 45.6372 89.224C46.7121 89.2071 47.787 89.165 48.8536 89.0471C52.7368 88.6429 55.8783 88.0787 58.2698 87.3376C59.3448 87.0092 60.2864 86.7229 61.103 86.4786C61.6863 86.3018 62.2696 86.7481 62.2696 87.3629L62.2863 88.5587C62.2863 89.3166 61.8113 89.9819 61.103 90.2008V90.2177Z" class="group-hover:fill-[#FFF2DF]" fill="#473533" />
<path d="M106.909 9.98866C105.959 9.75287 104.818 9.86235 103.476 10.3087C102.726 10.5529 101.834 11.2771 100.776 12.4729C98.6513 14.8982 97.4097 16.3467 97.0764 16.8351C96.6514 17.4667 95.9431 18.2415 94.9848 19.1762C94.4515 19.6899 93.7932 20.4984 93.0016 21.6015C92.9099 21.7363 92.8099 21.8542 92.6933 21.9636C92.1183 22.5026 91.56 23.1005 91.0267 23.7321C89.3268 25.7616 87.5769 27.8248 85.752 29.9217C84.977 30.8144 84.1937 31.707 83.3938 32.6165C82.8854 33.1891 82.4188 33.7365 81.9938 34.2418C81.4605 34.865 81.0022 35.4292 80.6106 35.9513C80.4772 36.1282 80.3189 36.2966 80.1523 36.4482C79.4106 37.0966 78.8023 37.745 78.3274 38.4019C78.219 38.5535 78.094 38.6882 77.9357 38.7977C76.9858 39.463 76.1025 40.6588 75.0442 41.4841C74.5192 41.8967 73.9609 42.3599 73.386 42.8736C71.7444 44.2883 69.9195 45.9641 68.2529 47.3284C64.5031 50.4105 60.545 53.6443 56.3702 57.0381C55.4786 57.7623 54.3286 59.0002 54.0036 59.8676C53.3203 61.6445 53.5287 63.2782 54.6536 64.7519C54.6953 64.794 54.7203 64.8277 54.7703 64.8614L69.1945 76.1627C69.2945 76.2385 69.4195 76.3142 69.5445 76.3564C70.2445 76.6343 70.7444 76.8111 71.0444 76.9037C72.5193 77.3837 73.9193 77.2153 75.2442 76.4069C76.8524 75.4216 77.4524 74.3858 78.3274 72.8279C78.6773 72.1963 78.944 71.6826 79.119 71.2868C81.6355 65.6446 83.7021 61.0718 85.327 57.5518C86.4853 55.0422 87.7019 52.5495 88.9685 50.1158C89.4684 49.1558 90.1017 48.2042 90.76 47.2779C91.7683 45.8631 92.8183 44.5157 93.4682 43.2946C94.1265 42.0904 95.0598 41.0798 95.8181 39.8756C97.4847 37.2229 99.0263 35.185 101.084 32.0102C102.418 29.9638 103.326 28.5912 103.809 27.909C105.634 25.3406 106.751 23.5637 108.801 20.5741C109.726 19.2099 110.292 18.2752 110.509 17.753C111.817 14.5109 110.476 10.8476 106.926 9.99708L106.909 9.98866ZM80.0606 59.2276C79.9023 59.6739 79.8023 59.9686 79.7439 60.095C77.9524 64.0614 76.2775 67.6741 74.7109 70.9247C73.6776 73.0805 72.3527 73.1142 70.6028 71.7499C65.553 67.8509 61.5199 64.6761 58.4867 62.2255C58.0368 61.855 57.9118 61.4087 58.1201 60.8529C58.1618 60.735 58.2368 60.6339 58.3284 60.5497C61.8116 57.7707 65.3947 54.8064 69.0945 51.6653C69.4612 51.3622 69.7778 51.1516 70.0611 51.0421C70.1695 51 70.2861 51.0169 70.3778 51.0927L79.8439 58.5034C80.0523 58.6802 80.1439 58.9581 80.0523 59.2276H80.0606ZM85.0853 49.0716L82.2438 54.638C82.1688 54.7812 81.9772 54.8233 81.8522 54.7222L73.7026 48.3389C73.5693 48.2463 73.5609 48.0442 73.6859 47.9347L78.2857 43.7494C78.3774 43.6651 78.5273 43.6567 78.619 43.7325L85.0103 48.7431C85.102 48.8189 85.1437 48.9621 85.077 49.0716H85.0853ZM106.751 16.313C106.726 16.372 106.693 16.4309 106.668 16.4814L91.1017 39.7998L87.6019 45.0462C87.5435 45.1389 87.4185 45.1641 87.3269 45.1052C86.8019 44.7515 85.8603 44.0441 84.4854 42.9662C83.1104 41.8967 82.1855 41.1472 81.7188 40.7346C81.6439 40.6672 81.6272 40.5409 81.7022 40.4482L82.3855 39.6651L85.0353 36.6166L88.8101 32.2881L104.209 14.6035C104.259 14.553 104.301 14.5109 104.351 14.4688C105.068 13.9382 105.726 13.913 106.326 14.3761C106.926 14.8477 107.068 15.5046 106.743 16.3383L106.751 16.313Z" class="group-hover:fill-[#FFF2DF]" fill="#EE514A" />
<path d="M37.3545 0.00100114C35.5046 -0.0579474 33.9213 2.49368 33.8047 5.71059C33.6964 8.93592 35.1046 11.5802 36.9545 11.656C37.0962 11.656 37.2295 11.656 37.3628 11.6223C37.6961 11.5633 38.0211 11.4286 38.3211 11.2097C39.3294 10.4939 40.121 8.97803 40.4043 7.10852C40.4627 6.72114 40.496 6.33376 40.5127 5.94639C40.621 2.7379 39.2127 0.0767922 37.3628 0.00100114H37.3545Z" class="group-hover:fill-[#FFF2DF]" fill="#EE514A" />
<path d="M28.3633 16.9362C29.8382 17.1214 30.9215 16.9362 31.5964 16.3804C31.8631 16.1614 32.0548 15.8919 32.2047 15.5719C32.3964 15.1424 32.4547 14.6961 32.3797 14.2414C32.2464 13.4498 31.6881 12.6161 30.7215 11.7403C29.7965 10.8981 28.7633 10.2329 27.6383 9.75285C26.73 9.34021 25.7551 9.05389 24.7135 8.87704C23.2802 8.64125 22.2636 9.45811 21.6886 10.7297C21.122 11.9929 21.172 13.3066 22.2969 14.2414C22.7219 14.6035 23.1719 14.9235 23.6302 15.2182C25.0885 16.1446 26.6634 16.7256 28.3633 16.9446V16.9362Z" class="group-hover:fill-[#FFF2DF]" fill="#EE514A" />
<path d="M53.6625 10.8055C53.1209 9.60123 52.1376 8.80963 50.7627 9.05385C49.0628 9.34859 47.5462 9.95492 46.2129 10.8728C45.7963 11.1592 45.413 11.4707 45.038 11.8076C43.7131 13.0118 43.2048 14.1487 43.5131 15.1761C43.5298 15.235 43.5464 15.2856 43.5714 15.3361C43.5881 15.3866 43.6047 15.4287 43.6297 15.4792C44.1464 16.6077 45.3713 17.0372 47.3129 16.7761C48.1378 16.6666 48.9378 16.4729 49.7044 16.1782C50.9127 15.7319 52.0376 15.0582 53.1042 14.174C54.1708 13.2645 54.2209 12.0097 53.6625 10.8055Z" class="group-hover:fill-[#FFF2DF]" fill="#EE514A" />
<path d="M51.5707 24.4647C50.5541 23.2436 48.0626 22.5699 46.9626 22.2499C45.1211 21.7194 39.9713 21.6183 41.4963 25.0373C41.9212 25.9889 42.8379 26.6205 43.7545 27.1089C44.8461 27.69 46.0044 28.1363 47.196 28.4479C48.1709 28.7006 49.2459 28.8437 50.1458 28.389C50.9208 27.9932 51.4291 27.2184 51.8124 26.4352C52.1957 25.6605 52.029 25.0121 51.5791 24.4647H51.5707Z" class="group-hover:fill-[#FFF2DF]" fill="#EE514A" />
<path d="M31.7392 21.1046C30.9892 20.7341 30.1309 20.5572 29.2976 20.5657C28.356 20.5825 27.4227 20.8099 26.5478 21.1467C25.6728 21.4836 24.8395 21.8878 24.1146 22.452C24.0479 22.5025 23.9812 22.5531 23.9229 22.612C23.4479 23.0247 23.0563 23.5468 22.8896 24.1615C22.6313 25.1215 23.0313 26.2247 23.8312 26.7974C24.5729 27.3195 25.5478 27.3784 26.4478 27.2521C27.5977 27.0921 28.6976 26.6542 29.7476 26.1405C30.9892 25.5258 32.2058 24.7594 32.9891 23.6141C33.1807 23.3278 33.3557 22.9994 33.3057 22.6625C33.2641 22.3846 33.0891 22.1573 32.8974 21.9552C32.5641 21.6099 32.1641 21.3236 31.7392 21.113V21.1046Z" class="group-hover:fill-[#FFF2DF]" fill="#EE514A" />
<path d="M39.1462 26.0816C38.7463 25.6605 38.2713 25.3994 37.763 25.3658C36.8214 25.3068 35.9298 26.0058 35.2965 27.1426C35.0131 27.6479 34.7798 28.2458 34.6215 28.9027C34.4882 29.4164 34.4048 29.9722 34.3715 30.5448C34.3548 30.7722 34.3465 30.9996 34.3548 31.2185C34.3798 33.888 35.5298 36.0186 37.0964 36.1197C38.413 36.2039 39.6296 34.8144 40.1879 32.7849C40.3462 32.2122 40.4545 31.589 40.4878 30.9322C40.5462 30.0648 40.4878 29.2395 40.3129 28.4985C40.0962 27.4711 39.6879 26.6289 39.1546 26.0647L39.1462 26.0816Z" class="group-hover:fill-[#FFF2DF]" fill="#EE514A" />
</svg>
