<svg class="group-hover:hidden" width="103" height="86" viewBox="0 0 103 86" fill="none" xmlns="http://www.w3.org/2000/svg">
<path d="M72.0032 59.3613C70.2458 59.1841 68.455 58.8296 66.6641 58.3317C63.6347 57.4709 60.7894 56.0953 58.2119 54.2303C53.015 50.4664 49.3663 45.4872 47.3411 39.4194C46.906 38.1113 46.521 36.5923 46.1863 34.7947C46.0775 34.2293 45.9938 33.647 45.9268 33.0478C45.4666 33.0478 44.9979 33.0478 44.5209 33.0478C37.3909 33.0309 29.9094 32.3811 22.0849 31.0646C17.3901 30.2797 12.8962 28.9548 8.59476 27.0981C7.60727 26.6762 5.25571 25.3174 5.72435 24.0009C6.01725 23.1823 6.59468 22.5241 7.47338 22.043C9.4902 20.9375 11.8752 20.0092 14.6368 19.2581C18.8546 18.1103 23.0891 17.2495 27.3236 16.6588C28.0516 16.5575 28.696 16.49 29.2483 16.4816C30.127 16.4478 30.9137 16.1187 31.7924 16.1018C34.8887 16.0427 37.5165 15.6039 40.6547 15.5448C43.2489 15.4857 45.8432 15.4942 48.4123 15.587C49.2157 13.6544 50.2032 11.8062 51.3413 10.0593C49.2408 9.94961 48.1612 9.89054 48.0943 9.8821C46.0524 9.80615 44.0272 9.80615 42.0187 9.8821C38.1441 10.0424 34.6293 10.1944 31.3405 10.4982C25.8423 11.013 20.8379 11.8484 16.3273 12.9962C11.7497 14.1692 7.63238 15.4773 4.0339 17.7137C1.56518 19.2412 0.25132 21.4438 0.0755804 24.3047C-0.125265 27.8408 0.0755811 31.7903 0.661379 36.1534C2.66146 50.7195 10.6702 63.7835 23.5661 71.0328C23.8339 71.1931 23.9845 71.4885 23.951 71.8007C23.7418 73.6658 23.7084 75.5984 23.859 77.59C24.0933 80.7547 26.152 82.046 28.8215 82.9405C32.0016 84.0039 34.6209 84.6537 36.6796 84.8647C37.7759 84.9744 38.6797 85.1178 39.3994 85.2951C39.5667 85.3372 39.7341 85.3541 39.9099 85.3626C45.6172 85.5145 49.1906 85.5229 50.6216 85.3626C53.8519 85.0419 56.8478 84.5355 59.5843 83.852C62.4631 83.1346 67.1913 81.7084 67.7269 78.2399C68.0951 75.8853 68.1286 73.6236 67.8273 71.4885C67.7938 71.3028 67.8859 71.1256 68.0533 71.0328C69.9111 70.0116 71.7187 68.7795 73.5012 67.3195C76.7315 64.6527 79.5349 61.7243 81.8948 58.5174C78.832 59.4288 75.5013 59.6989 72.0032 59.336V59.3613ZM61.3835 77.4128C58.6052 78.2736 56.7892 78.7968 55.9272 78.9403C52.7388 79.5057 49.4751 79.8686 46.1444 80.0205C46.0524 80.0205 45.9687 80.0205 45.8766 80.0205C45.7846 80.0205 45.7009 80.0205 45.6172 80.0205C42.2865 79.9024 39.0228 79.5817 35.826 79.0416C34.9473 78.8897 33.1313 78.3918 30.353 77.5478C29.6333 77.3453 29.1395 76.6702 29.1395 75.9106V74.7123C29.1395 74.0962 29.7253 73.6489 30.3111 73.8177C31.1313 74.0456 32.0853 74.3241 33.1564 74.6448C35.5749 75.3621 38.7299 75.9022 42.6296 76.2651C43.7092 76.3663 44.7887 76.417 45.8599 76.4085C46.9394 76.4085 48.0106 76.3495 49.0901 76.2313C52.9899 75.8347 56.1448 75.2693 58.5466 74.5266C59.6178 74.189 60.5634 73.9021 61.3835 73.6658C61.9693 73.4886 62.5551 73.9274 62.5635 74.5519V75.7503C62.5802 76.5098 62.0949 77.1681 61.3835 77.3959V77.4128Z" fill="#473533" class="fill-[#473533] group-hover:fill-[#FFF2DF]" />
<path d="M102.298 13.2579C101.796 11.6207 101.01 10.0679 99.9468 8.591C97.6621 5.41785 94.3147 2.82701 90.6409 1.57801C89.5614 1.21512 87.9965 0.700326 86.691 0.464028C84.4649 0.0505055 82.2473 -0.0845236 80.0464 0.0505041C78.3643 0.151775 76.6571 0.447147 74.9164 0.919744C71.7531 1.78055 68.8241 3.12238 66.1044 4.94526C63.6775 6.57403 61.51 8.48973 59.6522 10.6586C58.2463 12.2958 57.0077 14.0934 55.9952 16.0091C55.3089 17.275 54.7148 18.6168 54.221 20.0093C53.9449 20.7941 53.6854 21.6803 53.4428 22.6676C53.1917 23.6972 53.0243 24.6087 52.9323 25.3851C52.7649 26.7691 52.6896 28.2207 52.7147 29.7313C52.7147 30.8284 52.7984 31.8833 52.9657 32.9044C52.9992 33.107 53.0243 33.3179 53.0662 33.5121C53.3423 34.9636 53.6436 36.1873 53.9783 37.1916C55.5265 41.85 58.3049 45.6308 62.305 48.517C64.2214 49.9095 66.3136 50.9222 68.5647 51.5551C74.0545 53.1079 80.1384 52.9307 84.8164 49.3187C86.055 48.3651 87.0006 47.2089 87.645 45.8671C88.1806 44.77 88.3647 43.5463 88.189 42.1791C88.0467 41.0314 87.3102 39.5967 86.691 38.6769C86.2725 38.0439 85.9713 37.5544 85.7872 37.2169C85.2683 36.2801 85.0591 35.3012 85.1512 34.2885C85.3604 31.9592 87.4107 30.2376 89.5447 29.5794C89.8376 29.495 90.3564 29.4021 91.1012 29.3009C91.2351 29.284 91.369 29.2587 91.5029 29.2418C92.7749 29.0646 93.9214 28.8283 95.1181 28.4063C96.9173 27.7649 98.4655 26.7607 99.7794 25.3935C102.834 22.2035 103.545 17.3509 102.282 13.2495L102.298 13.2579ZM59.1501 26.5666C58.807 24.0517 60.6397 21.714 63.2339 21.3511C65.8282 20.9882 68.2132 22.7436 68.5647 25.2669C68.9078 27.7818 67.0751 30.1195 64.4809 30.4824C61.8782 30.8368 59.4932 29.0899 59.1501 26.5666ZM66.9914 43.9767C64.4474 43.9092 62.4473 41.8753 62.5059 39.4448C62.5728 37.0143 64.6901 35.1071 67.2341 35.1746C69.7781 35.2421 71.7866 37.2759 71.7197 39.698C71.6611 42.1285 69.5355 44.0442 66.9914 43.9767ZM72.431 18.2792C72.2552 18.3214 72.0711 18.3468 71.887 18.3636C70.7489 18.4649 69.6694 18.1611 68.8241 17.5535C67.8032 16.8446 67.0835 15.7137 66.9663 14.3888C66.8743 13.3845 67.1421 12.4309 67.6525 11.6376C68.3806 10.5067 69.6275 9.70498 71.0836 9.56995C73.477 9.35053 75.5943 10.9793 75.9541 13.2579C75.9709 13.3507 75.9876 13.452 75.996 13.5533C76.2052 15.7981 74.6403 17.8151 72.431 18.2792ZM86.5822 15.123C84.0632 15.2327 81.9293 13.3339 81.8289 10.8696C81.7284 8.41378 83.6867 6.33773 86.2056 6.22802C88.7329 6.11831 90.8585 8.01714 90.9673 10.4814C91.0677 12.9372 89.1095 15.0133 86.5822 15.123Z" fill="#EE514A" class="fill-[#EE514A] group-hover:fill-[#FFF2DF]" />
</svg>
